<svg width="56" height="57" viewBox="0 0 56 57" fill="none" xmlns="http://www.w3.org/2000/svg">
<path d="M43.22 27.8C43.23 27.99 43.23 28.17 43.23 28.36V27.8H43.22Z" fill="#543295"/>
<path d="M42.82 9.92L45.25 8.3C45.84 7.91 45.88 7.06 45.34 6.62C40.56 2.79 34.51 0.5 27.91 0.5C22.25 0.5 16.98 2.19 12.59 5.09C5.04 10.07 0.0599976 18.63 0.0599976 28.36V54.3C0.0599976 55.73 1.64 56.59 2.84 55.82L3.6 55.33L5.7 53.97C6.08 53.73 6.57 53.73 6.95 53.97L9.82 55.82C11.02 56.59 12.6 55.73 12.6 54.3V28.61C12.6 20.2 19.27 13.17 27.68 13.04C32.2 12.97 36.28 14.86 39.12 17.91C39.77 18.61 40.94 18.16 40.94 17.2V13.43C40.94 12.02 41.64 10.7 42.82 9.92Z" fill="#543295"/>
<path d="M54.68 11.75L50.87 9.21C50.05 8.66 48.97 8.66 48.15 9.21L44.33 11.75C43.65 12.21 43.24 12.97 43.24 13.79V28.13C43.24 36.61 36.44 43.66 27.96 43.68C23.55 43.69 19.57 41.84 16.77 38.86C16.08 38.12 14.83 38.63 14.83 39.64V51.19C14.83 52.3 15.48 53.3 16.49 53.76C19.98 55.34 23.85 56.21 27.93 56.21C33.59 56.21 38.86 54.52 43.25 51.62C50.8 46.64 55.79 38.08 55.79 28.35V13.79C55.77 12.97 55.36 12.21 54.68 11.75Z" fill="#F3BB1C"/>
<path d="M27.84 40.56C27.84 41.22 28.41 41.74 29.06 41.68C31.32 41.47 33.42 40.71 35.21 39.52C38.85 37.12 41.25 33 41.25 28.31V22.13C41.25 21.73 41.05 21.37 40.72 21.15L38.88 19.93C38.48 19.67 37.97 19.66 37.57 19.93L35.73 21.15C35.4 21.37 35.2 21.74 35.2 22.13V28.2C35.2 31.96 32.43 35.13 28.81 35.62C28.26 35.7 27.84 36.16 27.84 36.72V40.56Z" fill="#F3BB1C"/>
</svg>
